<svg width="75" height="28" viewBox="0 0 75 28" fill="none" xmlns="http://www.w3.org/2000/svg">
<g clip-path="url(#clip0_2669_18271)">
<path fill-rule="evenodd" clip-rule="evenodd" d="M19.3611 11.7073C19.3611 15.1611 18.5583 17.7347 16.9539 19.4119C15.3494 21.0891 12.871 21.9273 9.5291 21.9273C6.40701 21.9273 4.03779 21.0887 2.42286 19.4119C0.807463 17.7352 -0.00047449 15.2063 2.09057e-07 11.8253V0.482067C0.000949606 0.216067 0.219786 0.000933333 0.489889 0H6.15114C6.42172 0.000933333 6.64056 0.216067 6.64151 0.482067V12.0731C6.64151 13.4535 6.90117 14.5161 7.42998 15.2656C8.38175 16.506 10.1761 16.7529 11.4379 15.8172C11.6273 15.6767 11.7982 15.5139 11.9463 15.3319C12.4632 14.6286 12.7205 13.5921 12.7191 12.2225V10.052H19.3611V11.7068V11.7073Z" fill="#203E7A"/>
<path fill-rule="evenodd" clip-rule="evenodd" d="M18.8544 8.78453H12.7266V0.504467C12.7275 0.225867 12.9568 0.000466667 13.2397 0H14.1568C14.1587 2.82707 16.4904 5.11793 19.3662 5.11793H19.3676V8.78453H18.854H18.8544Z" fill="#203E7A"/>
<path fill-rule="evenodd" clip-rule="evenodd" d="M15.4497 0H18.8419C19.1253 0.000933333 19.3546 0.226333 19.355 0.504467V3.84393C17.198 3.84393 15.4492 2.12473 15.4492 0.0042V0L15.4497 0Z" fill="#F4821F"/>
<path fill-rule="evenodd" clip-rule="evenodd" d="M1.11269 27.4368C1.86224 27.4368 2.22396 27.0266 2.22396 26.4241V24.9723H1.68755V26.4096C1.68755 26.7232 1.42884 26.9776 1.10985 26.9776C0.790848 26.9776 0.532137 26.7232 0.532137 26.4096V24.9723H0V26.4288C0 27.0238 0.36172 27.4377 1.11127 27.4377L1.11222 27.4368H1.11269ZM5.46141 27.3934V26.9398H4.27276L5.43577 25.3853V24.9714H3.58587V25.4254H4.74888L3.58587 26.9752V27.3915L5.46141 27.3934ZM7.96734 27.4368C8.39789 27.4466 8.79711 27.216 8.99744 26.8413L8.54552 26.6271C8.4335 26.8408 8.21039 26.9762 7.96592 26.979C7.51923 26.957 7.17507 26.5837 7.19738 26.1446C7.21779 25.7358 7.55008 25.4091 7.96592 25.389C8.20991 25.3932 8.43255 25.5281 8.54552 25.7409L8.99744 25.523C8.79711 25.1487 8.39742 24.9191 7.96734 24.9312C7.26384 24.9107 6.67664 25.4544 6.65527 26.146C6.63439 26.8376 7.18741 27.4148 7.89091 27.4358C7.91607 27.4368 7.94171 27.4368 7.96687 27.4358L7.96734 27.4368ZM12.5482 27.3934L11.5993 24.9723H10.9423L9.98956 27.3934H10.5877L10.7429 26.9832H11.7991L11.9505 27.3934H12.5487H12.5482ZM11.6548 26.5296H10.8867L11.2708 25.4875L11.6548 26.5296ZM16.0885 28.001L15.1847 26.4722C15.5179 26.3933 15.7453 26.09 15.7239 25.7535C15.7401 25.3372 15.4101 24.9872 14.9867 24.9714C14.9568 24.9704 14.9269 24.9709 14.897 24.9732H13.7444V27.3943H14.269V26.5338H14.653L15.4866 28.0005H16.0885V28.001ZM14.8191 26.0806H14.269V25.4273H14.8172C15.001 25.4082 15.1652 25.5393 15.1847 25.7194C15.2041 25.8996 15.0707 26.0615 14.8875 26.0806C14.8642 26.083 14.841 26.083 14.8177 26.0806H14.8196H14.8191ZM18.0561 27.3948C18.828 27.3948 19.3634 26.9155 19.3634 26.1861C19.3634 25.4567 18.827 24.9737 18.0561 24.9737H17.0849V27.3948H18.0561ZM18.0561 26.9412H17.6094V25.4278H18.0561C18.453 25.3988 18.7985 25.6919 18.828 26.082C18.8303 26.1166 18.8303 26.1516 18.828 26.1861C18.8451 26.586 18.5294 26.9239 18.1226 26.9407C18.1003 26.9416 18.0775 26.9416 18.0547 26.9407H18.0561V26.9412Z" fill="#233C7E"/>
<path fill-rule="evenodd" clip-rule="evenodd" d="M19.9991 24.9242V24.9298C19.9991 25.179 19.7941 25.3806 19.5411 25.3811C19.2876 25.3811 19.0825 25.1795 19.082 24.9308C19.082 24.6816 19.2871 24.48 19.5401 24.4795H19.9987V24.9242H19.9991Z" fill="#233C7E"/>
</g>
<g clip-path="url(#clip1_2669_18271)">
<path d="M47.8867 1.82929C52.4748 1.82929 57.0629 1.84526 61.6505 1.81863C62.9104 1.81118 64.1703 1.80426 65.4302 1.78881C65.5377 1.78721 65.6441 1.80266 65.7511 1.81224C66.2633 1.85645 66.3966 2.26226 66.4993 2.68992C67.5829 7.18639 67.2389 11.9753 65.3135 16.2044C64.8002 17.3318 64.1735 18.3938 63.4807 19.4174C62.9362 20.2221 62.3428 20.9906 61.6935 21.7181C61.2092 22.2607 60.7002 22.7789 60.16 23.263C59.1436 24.1743 58.0648 25.0056 56.8071 25.5765C56.14 25.8796 55.4407 26.0691 54.713 26.1703C53.9873 26.2715 53.2585 26.2705 52.5307 26.2545C48.5081 26.1682 44.4854 26.2353 40.4628 26.2172C38.3805 26.2081 36.2977 26.2151 34.2154 26.2172C33.9977 26.2172 33.7833 26.2002 33.5779 26.1336C33.1512 25.9962 32.8926 25.6255 32.8684 25.134C32.8614 24.9944 32.8636 24.8544 32.8636 24.7148C32.8636 17.563 32.8636 10.4111 32.8636 3.25977C32.8636 3.05526 32.8679 2.85235 32.9082 2.64731C33.0055 2.15682 33.3989 1.86444 33.8983 1.83461C34.0719 1.82396 34.2466 1.82875 34.4207 1.82875C38.9094 1.82875 43.3975 1.82875 47.8862 1.82769L47.8867 1.82929Z" fill="#2F4653"/>
<path d="M66.364 21.2291C66.614 21.162 66.8171 21.0203 67.0079 20.8691C67.8223 20.2247 68.4275 19.4093 68.944 18.521C70.8059 15.3171 71.9024 11.7222 72.1174 8.01342C72.1395 7.63583 72.1416 7.2593 72.1534 6.88225C72.155 6.82633 72.1405 6.76668 72.19 6.70597C72.3378 6.74857 72.4711 6.82047 72.5915 6.92592C74.0325 8.1913 74.2766 10.5942 74.1207 12.3704C73.7509 16.575 71.4079 21.0624 67.646 23.2332C67.5594 23.2832 67.4718 23.3317 67.3831 23.3786C66.8021 23.6859 66.1985 23.9271 65.5771 24.1337C65.4599 24.1726 65.3428 24.212 65.2267 24.2509C65.7389 24.2227 66.4473 24.1343 67.2498 23.8728C69.3955 23.1741 71.1048 21.5971 72.2916 19.7305C72.5834 19.2714 72.8452 18.7963 73.101 18.317C73.1166 18.2883 73.1322 18.2579 73.172 18.2494C73.2193 18.2505 73.2386 18.2877 73.2548 18.3245C73.8509 19.6889 73.6971 21.088 72.857 22.3209C71.2031 24.7467 67.7083 26.1948 64.8182 26.2065C62.1543 26.2171 59.491 26.214 56.8272 26.2134C56.7433 26.2134 56.6159 26.2571 56.5928 26.1399C56.5681 26.0153 56.7041 26.0302 56.782 25.9951C60.8235 24.154 63.8813 20.9421 65.8744 17.0197C67.6062 13.6112 68.4764 9.75332 68.1372 5.938C68.0287 4.71576 67.7997 3.50363 67.4476 2.32719C67.4267 2.25635 67.3971 2.18712 67.3831 2.11469C67.3347 1.86119 67.4105 1.79728 67.6723 1.82284C68.3264 1.88622 68.9037 2.12641 69.4181 2.52743C70.3915 3.28634 70.7651 4.6625 70.9897 5.81924C71.4101 7.98573 70.9806 10.3855 70.4694 12.5051C69.8046 15.2638 68.6823 17.9597 67.0638 20.3056C66.8913 20.5559 66.6919 20.7876 66.5065 21.0283C66.4565 21.0933 66.4113 21.1615 66.364 21.228V21.2291Z" fill="url(#paint0_linear_2669_18271)"/>
<path d="M43.3343 12.1319C43.33 11.7916 43.2236 11.4492 42.9204 11.258C42.6254 11.0721 42.233 11.0758 42.0008 11.3586C41.982 11.3815 41.9417 11.4204 41.9535 11.454C41.9653 11.4875 42.0384 11.4795 42.069 11.495C42.1217 11.5211 42.1427 11.5733 42.1411 11.6292C42.1389 11.6942 42.1384 12.3146 42.1357 13.1699C41.3762 13.1656 40.6162 13.1609 39.8567 13.1566C39.8422 12.9697 39.8368 12.7598 39.8502 12.5319C39.8626 12.3215 39.89 12.1122 39.9314 11.9056C39.9497 11.8151 39.9706 11.725 39.9943 11.6361C40.0201 11.5381 40.0916 11.4178 40.0841 11.315C40.083 11.3011 40.0798 11.2873 40.0712 11.2766C40.0507 11.2516 40.0115 11.2559 39.9803 11.2638C39.7868 11.3128 39.5987 11.4151 39.4503 11.5477C39.4047 11.5882 39.2826 11.7032 39.1725 11.8992C38.8801 12.4179 38.8569 13.1529 38.8569 13.1529C38.8419 13.6279 38.8231 14.5908 39.3342 15.5904C39.3342 15.5904 39.6922 16.2913 40.2045 16.4638C40.3055 16.4979 40.3329 16.4756 40.3415 16.4638C40.3813 16.4132 40.2958 16.3259 40.2706 16.287C40.2238 16.2157 40.184 16.14 40.1496 16.0618C40.0787 15.9004 40.0314 15.7294 39.9964 15.5574C39.8895 15.0334 39.8201 14.5029 39.8352 13.9677H42.1357V15.9792C42.1357 16.1123 42.1905 16.2407 42.3147 16.3035C42.3894 16.3414 42.4743 16.3547 42.5576 16.3648C42.7033 16.3829 42.8522 16.3925 42.9962 16.3648C43.0806 16.3488 43.165 16.3185 43.2279 16.2604C43.3295 16.1672 43.3311 16.0405 43.3311 15.9132C43.3311 14.9029 43.3408 13.8926 43.3392 12.8823C43.3392 12.6315 43.337 12.3812 43.3343 12.1303V12.1319Z" fill="url(#paint1_linear_2669_18271)"/>
<path d="M40.1781 16.7158C39.2498 16.4468 38.8875 15.4722 38.6892 14.627C38.6462 14.4428 38.6048 14.2612 38.5801 14.0732C38.5059 13.5049 38.5091 12.8802 38.6951 12.3317C38.5532 12.3631 38.4892 12.484 38.4065 12.582C38.1039 12.9399 38.0802 13.3579 38.0657 13.7733C38.0313 14.749 38.3909 15.4429 38.471 15.592C38.6516 15.927 38.8483 16.1475 38.9063 16.2109C39.1127 16.4372 39.3202 16.5943 39.4793 16.6987C39.353 16.6678 39.1746 16.6098 38.9837 16.4932C38.8069 16.385 38.6806 16.2647 38.5978 16.1725C38.478 16.0208 38.3936 15.8871 38.3387 15.7923C38.1909 15.5388 38.0071 15.223 37.9136 14.7996C37.8872 14.6808 37.8695 14.5599 37.8222 14.5551C37.7539 14.5482 37.6771 14.7889 37.6604 14.8406C37.6067 15.0084 37.5932 15.1633 37.5938 15.2453C37.5975 15.5649 37.8394 16.1864 38.4172 16.6082C38.4172 16.6082 38.9225 16.9767 39.7868 17.005C39.8222 17.006 40.0313 17.0012 40.1867 16.891C40.263 16.8367 40.3135 16.7536 40.1781 16.7147V16.7158Z" fill="url(#paint2_linear_2669_18271)"/>
<path d="M38.6888 12.3279C38.6888 12.3279 38.6882 12.3305 38.6875 12.3319C38.6888 12.3319 38.6901 12.3312 38.6915 12.3305L38.6888 12.3279Z" fill="url(#paint3_linear_2669_18271)"/>
<path d="M38.6953 12.3301L38.6982 12.333L38.7096 12.317L38.6953 12.3301Z" fill="url(#paint4_linear_2669_18271)"/>
<path d="M55.2113 12.0157C55.2151 11.8985 55.2113 11.7249 55.1689 11.5161C55.1646 11.4937 55.1592 11.4405 55.1318 11.3787C55.1173 11.3452 55.0764 11.2562 54.9813 11.1955C54.9302 11.1635 54.8733 11.1444 54.8131 11.1449C54.7711 11.1449 54.7292 11.1481 54.6878 11.1481C54.6298 11.1481 54.5717 11.1497 54.5137 11.1502C54.4008 11.1513 54.2879 11.1486 54.1756 11.1529C54.0745 11.1566 53.9799 11.1907 53.9079 11.2658C53.8224 11.3547 53.7542 11.4815 53.6413 11.7531C53.6225 11.7978 53.6074 11.8362 53.5972 11.8623C53.5542 11.9544 52.9474 13.2581 52.7179 13.6352C52.7012 13.6634 52.6636 13.7236 52.6174 13.7215C52.5706 13.7236 52.5335 13.6634 52.5169 13.6352C52.2879 13.2576 51.6805 11.9544 51.6375 11.8623C51.6273 11.8362 51.6122 11.7984 51.5934 11.7531C51.4806 11.4815 51.4123 11.3547 51.3268 11.2658C51.2553 11.1907 51.1607 11.1566 51.0592 11.1529C50.9463 11.1492 50.8334 11.1513 50.7211 11.1502C50.663 11.1502 50.605 11.1486 50.5469 11.1481C50.505 11.1481 50.4631 11.1454 50.4217 11.1449C50.3615 11.1449 50.305 11.1635 50.2534 11.1955C50.1583 11.2562 50.1175 11.3452 50.1029 11.3787C50.0755 11.4405 50.0702 11.4937 50.0659 11.5161C50.0239 11.7254 50.0196 11.899 50.0234 12.0157C49.9793 13.3572 49.9352 14.6977 49.8906 16.0392C49.8922 16.0616 49.8965 16.0925 49.9089 16.1271C49.9782 16.3236 50.2298 16.42 50.4233 16.4227C50.6189 16.4253 50.8528 16.3332 50.9355 16.1553C50.9366 16.1532 50.9517 16.1186 50.9597 16.0802C51.0172 15.807 51.0506 13.607 51.0629 12.6489C51.5929 13.7247 52.0073 14.5288 52.1992 14.8835C52.2379 14.9565 52.3212 15.103 52.4744 15.153C52.5185 15.1679 52.5674 15.1759 52.6174 15.1765C52.6674 15.1765 52.7163 15.1679 52.7603 15.153C52.9135 15.103 52.9963 14.9565 53.0355 14.8835C53.2269 14.5288 53.6418 13.7247 54.1718 12.6489C54.1842 13.6075 54.2175 15.807 54.275 16.0802C54.2831 16.1186 54.2981 16.1532 54.2992 16.1553C54.382 16.3332 54.6158 16.4253 54.8114 16.4227C55.0055 16.42 55.2565 16.3236 55.3258 16.1271C55.3382 16.0925 55.3425 16.0616 55.3441 16.0392C55.3 14.6977 55.256 13.3572 55.2113 12.0157Z" fill="url(#paint5_linear_2669_18271)"/>
<path d="M48.8338 11.3019C48.7236 11.164 48.5355 11.1587 48.3543 11.1539C48.1829 11.1491 47.9646 11.1432 47.8281 11.2934C47.7523 11.377 47.7314 11.4755 47.7249 11.5352C47.7217 12.5252 47.7185 13.5148 47.7152 14.5048C47.7168 14.6017 47.7072 14.7844 47.6083 14.9852C47.504 15.1971 47.3562 15.3175 47.3186 15.3468C47.3186 15.3468 47.067 15.5438 46.7381 15.5699C46.7053 15.5726 46.6703 15.5737 46.6703 15.5737C46.6617 15.5737 46.6531 15.5737 46.6445 15.5742C46.6359 15.5742 46.6273 15.5742 46.6187 15.5737C46.6187 15.5737 46.5843 15.5726 46.551 15.5699C46.2221 15.5433 45.9705 15.3468 45.9705 15.3468C45.9323 15.317 45.7851 15.1971 45.6808 14.9852C45.5819 14.7844 45.5722 14.6017 45.5738 14.5048C45.5706 13.5148 45.5674 12.5252 45.5642 11.5352C45.5577 11.4755 45.5373 11.377 45.461 11.2934C45.3244 11.1432 45.1062 11.1491 44.9347 11.1539C44.7541 11.1587 44.5655 11.164 44.4553 11.3019C44.3688 11.41 44.3757 11.5437 44.3827 11.6018V14.7098C44.3827 14.999 44.4666 15.3819 44.7466 15.7457C45.0611 16.1542 45.5077 16.3363 45.6453 16.3869C45.9243 16.4897 46.1989 16.5184 46.2828 16.5264C46.4285 16.5408 46.5526 16.5413 46.6445 16.5387C46.7364 16.5413 46.8606 16.5408 47.0063 16.5264C47.0901 16.5179 47.3648 16.4891 47.6437 16.3869C47.7813 16.3363 48.228 16.1542 48.5424 15.7457C48.8219 15.3819 48.9063 14.999 48.9063 14.7098V11.6018C48.9133 11.5437 48.9203 11.41 48.8338 11.3019Z" fill="url(#paint6_linear_2669_18271)"/>
<path d="M61.2804 12.7994C61.1288 12.3004 60.8192 11.8605 60.3989 11.5473C59.9222 11.1926 59.3309 11.0068 58.737 10.9929C58.143 11.0068 57.5518 11.1926 57.075 11.5473C56.6542 11.8605 56.3446 12.3004 56.1935 12.7994C55.7608 14.232 56.4117 16.0598 57.9694 16.464C58.221 16.529 58.4795 16.5567 58.737 16.5497C58.995 16.5567 59.2535 16.529 59.5045 16.464C61.0622 16.0598 61.7131 14.232 61.2804 12.7994ZM60.1237 14.3987C59.9609 15.0772 59.5061 15.8063 58.7364 15.8143C57.9667 15.8063 57.512 15.0772 57.3491 14.3987C57.1922 13.7452 57.2212 12.9757 57.5905 12.3925C57.8463 11.9883 58.2817 11.7492 58.7359 11.746C59.1906 11.7492 59.6255 11.9888 59.8813 12.3925C60.2506 12.9757 60.2796 13.7452 60.1227 14.3987H60.1237Z" fill="url(#paint7_linear_2669_18271)"/>
</g>
<defs>
<linearGradient id="paint0_linear_2669_18271" x1="54.6406" y1="17.7381" x2="74.6154" y2="11.5497" gradientUnits="userSpaceOnUse">
<stop offset="0.33" stop-color="#9C8837"/>
<stop offset="0.56" stop-color="#F7E59E"/>
<stop offset="0.6" stop-color="#F0DE96"/>
<stop offset="0.67" stop-color="#DECB80"/>
<stop offset="0.75" stop-color="#C0AC5D"/>
<stop offset="0.79" stop-color="#B39F4D"/>
</linearGradient>
<linearGradient id="paint1_linear_2669_18271" x1="42.2335" y1="14.3911" x2="38.5738" y2="11.5962" gradientUnits="userSpaceOnUse">
<stop offset="0.33" stop-color="#9C8837"/>
<stop offset="0.56" stop-color="#F7E59E"/>
<stop offset="0.6" stop-color="#F0DE96"/>
<stop offset="0.67" stop-color="#DECB80"/>
<stop offset="0.75" stop-color="#C0AC5D"/>
<stop offset="0.79" stop-color="#B39F4D"/>
</linearGradient>
<linearGradient id="paint2_linear_2669_18271" x1="40.8526" y1="16.1923" x2="37.1929" y2="13.3974" gradientUnits="userSpaceOnUse">
<stop offset="0.33" stop-color="#9C8837"/>
<stop offset="0.56" stop-color="#F7E59E"/>
<stop offset="0.6" stop-color="#F0DE96"/>
<stop offset="0.67" stop-color="#DECB80"/>
<stop offset="0.75" stop-color="#C0AC5D"/>
<stop offset="0.79" stop-color="#B39F4D"/>
</linearGradient>
<linearGradient id="paint3_linear_2669_18271" x1="42.6902" y1="15.3587" x2="38.1496" y2="11.9224" gradientUnits="userSpaceOnUse">
<stop offset="0.33" stop-color="#9C8837"/>
<stop offset="0.56" stop-color="#F7E59E"/>
<stop offset="0.6" stop-color="#F0DE96"/>
<stop offset="0.67" stop-color="#DECB80"/>
<stop offset="0.75" stop-color="#C0AC5D"/>
<stop offset="0.79" stop-color="#B39F4D"/>
</linearGradient>
<linearGradient id="paint4_linear_2669_18271" x1="42.1462" y1="14.9302" x2="38.238" y2="11.972" gradientUnits="userSpaceOnUse">
<stop offset="0.33" stop-color="#9C8837"/>
<stop offset="0.56" stop-color="#F7E59E"/>
<stop offset="0.6" stop-color="#F0DE96"/>
<stop offset="0.67" stop-color="#DECB80"/>
<stop offset="0.75" stop-color="#C0AC5D"/>
<stop offset="0.79" stop-color="#B39F4D"/>
</linearGradient>
<linearGradient id="paint5_linear_2669_18271" x1="55.88" y1="15.5205" x2="50.1773" y2="12.468" gradientUnits="userSpaceOnUse">
<stop offset="0.33" stop-color="#9C8837"/>
<stop offset="0.56" stop-color="#F7E59E"/>
<stop offset="0.6" stop-color="#F0DE96"/>
<stop offset="0.67" stop-color="#DECB80"/>
<stop offset="0.75" stop-color="#C0AC5D"/>
<stop offset="0.79" stop-color="#B39F4D"/>
</linearGradient>
<linearGradient id="paint6_linear_2669_18271" x1="49.4637" y1="15.2392" x2="43.7676" y2="11.6397" gradientUnits="userSpaceOnUse">
<stop offset="0.33" stop-color="#9C8837"/>
<stop offset="0.56" stop-color="#F7E59E"/>
<stop offset="0.6" stop-color="#F0DE96"/>
<stop offset="0.67" stop-color="#DECB80"/>
<stop offset="0.75" stop-color="#C0AC5D"/>
<stop offset="0.79" stop-color="#B39F4D"/>
</linearGradient>
<linearGradient id="paint7_linear_2669_18271" x1="62.7757" y1="16.1093" x2="55.6892" y2="11.9582" gradientUnits="userSpaceOnUse">
<stop offset="0.33" stop-color="#9C8837"/>
<stop offset="0.56" stop-color="#F7E59E"/>
<stop offset="0.6" stop-color="#F0DE96"/>
<stop offset="0.67" stop-color="#DECB80"/>
<stop offset="0.75" stop-color="#C0AC5D"/>
<stop offset="0.79" stop-color="#B39F4D"/>
</linearGradient>
<clipPath id="clip0_2669_18271">
<rect width="20" height="28" fill="white"/>
</clipPath>
<clipPath id="clip1_2669_18271">
<rect width="43" height="26" fill="white" transform="translate(32 1)"/>
</clipPath>
</defs>
</svg>
