<?xml version="1.0" encoding="UTF-8"?>
<!DOCTYPE svg PUBLIC "-//W3C//DTD SVG 1.1 Tiny//EN" "http://www.w3.org/Graphics/SVG/1.1/DTD/svg11-tiny.dtd">
<!-- Generator: Boxshot Barcode 2.5.7 -->
<svg version="1.1" baseProfile="tiny" xmlns="http://www.w3.org/2000/svg" xmlns:xlink="http://www.w3.org/1999/xlink" xmlns:barcode="https://boxshot.com/barcode" width="4.6cm" height="4.6cm" viewBox="0 0 4.6 4.6">
    <g stroke-width="0" stroke="transparent" transform="translate(0, 4.6) scale(1,-1)">
        <path fill="#fffffe" d=" M 0.00000,4.60000 l 0.00000,-4.60000 l 4.60000,0.00000 l 0.00000,4.60000 l -4.60000,0.00000 z"/>
        <path fill="#181817" d=" M 0.20000,4.40000 l 0.00000,-0.16800 l 1.17600,0.00000 l 0.00000,0.16800 l -1.17600,0.00000 z"/>
        <path fill="#181817" d=" M 1.54400,4.40000 l 0.00000,-0.16800 l 0.67200,0.00000 l 0.00000,0.16800 l -0.67200,0.00000 z"/>
        <path fill="#181817" d=" M 2.55200,4.40000 l 0.00000,-0.16800 l 0.16800,0.00000 l 0.00000,0.16800 l -0.16800,0.00000 z"/>
        <path fill="#181817" d=" M 2.88800,4.40000 l 0.00000,-0.16800 l 0.16800,0.00000 l 0.00000,0.16800 l -0.16800,0.00000 z"/>
        <path fill="#181817" d=" M 3.22400,4.40000 l 0.00000,-0.16800 l 1.17600,0.00000 l 0.00000,0.16800 l -1.17600,0.00000 z"/>
        <path fill="#181817" d=" M 0.20000,4.23200 l 0.00000,-0.16800 l 0.16800,0.00000 l 0.00000,0.16800 l -0.16800,0.00000 z"/>
        <path fill="#181817" d=" M 1.20800,4.23200 l 0.00000,-0.16800 l 0.16800,0.00000 l 0.00000,0.16800 l -0.16800,0.00000 z"/>
        <path fill="#181817" d=" M 2.04800,4.23200 l 0.00000,-0.16800 l 0.33600,0.00000 l 0.00000,0.16800 l -0.33600,0.00000 z"/>
        <path fill="#181817" d=" M 3.22400,4.23200 l 0.00000,-0.16800 l 0.16800,0.00000 l 0.00000,0.16800 l -0.16800,0.00000 z"/>
        <path fill="#181817" d=" M 4.23200,4.23200 l 0.00000,-0.16800 l 0.16800,0.00000 l 0.00000,0.16800 l -0.16800,0.00000 z"/>
        <path fill="#181817" d=" M 0.20000,4.06400 l 0.00000,-0.16800 l 0.16800,0.00000 l 0.00000,0.16800 l -0.16800,0.00000 z"/>
        <path fill="#181817" d=" M 0.53600,4.06400 l 0.00000,-0.16800 l 0.50400,0.00000 l 0.00000,0.16800 l -0.50400,0.00000 z"/>
        <path fill="#181817" d=" M 1.20800,4.06400 l 0.00000,-0.16800 l 0.16800,0.00000 l 0.00000,0.16800 l -0.16800,0.00000 z"/>
        <path fill="#181817" d=" M 1.71200,4.06400 l 0.00000,-0.16800 l 0.16800,0.00000 l 0.00000,0.16800 l -0.16800,0.00000 z"/>
        <path fill="#181817" d=" M 2.04800,4.06400 l 0.00000,-0.16800 l 0.16800,0.00000 l 0.00000,0.16800 l -0.16800,0.00000 z"/>
        <path fill="#181817" d=" M 2.38400,4.06400 l 0.00000,-0.16800 l 0.33600,0.00000 l 0.00000,0.16800 l -0.33600,0.00000 z"/>
        <path fill="#181817" d=" M 2.88800,4.06400 l 0.00000,-0.16800 l 0.16800,0.00000 l 0.00000,0.16800 l -0.16800,0.00000 z"/>
        <path fill="#181817" d=" M 3.22400,4.06400 l 0.00000,-0.16800 l 0.16800,0.00000 l 0.00000,0.16800 l -0.16800,0.00000 z"/>
        <path fill="#181817" d=" M 3.56000,4.06400 l 0.00000,-0.16800 l 0.50400,0.00000 l 0.00000,0.16800 l -0.50400,0.00000 z"/>
        <path fill="#181817" d=" M 4.23200,4.06400 l 0.00000,-0.16800 l 0.16800,0.00000 l 0.00000,0.16800 l -0.16800,0.00000 z"/>
        <path fill="#181817" d=" M 0.20000,3.89600 l 0.00000,-0.16800 l 0.16800,0.00000 l 0.00000,0.16800 l -0.16800,0.00000 z"/>
        <path fill="#181817" d=" M 0.53600,3.89600 l 0.00000,-0.16800 l 0.50400,0.00000 l 0.00000,0.16800 l -0.50400,0.00000 z"/>
        <path fill="#181817" d=" M 1.20800,3.89600 l 0.00000,-0.16800 l 0.16800,0.00000 l 0.00000,0.16800 l -0.16800,0.00000 z"/>
        <path fill="#181817" d=" M 1.88000,3.89600 l 0.00000,-0.16800 l 0.67200,0.00000 l 0.00000,0.16800 l -0.67200,0.00000 z"/>
        <path fill="#181817" d=" M 2.72000,3.89600 l 0.00000,-0.16800 l 0.16800,0.00000 l 0.00000,0.16800 l -0.16800,0.00000 z"/>
        <path fill="#181817" d=" M 3.22400,3.89600 l 0.00000,-0.16800 l 0.16800,0.00000 l 0.00000,0.16800 l -0.16800,0.00000 z"/>
        <path fill="#181817" d=" M 3.56000,3.89600 l 0.00000,-0.16800 l 0.50400,0.00000 l 0.00000,0.16800 l -0.50400,0.00000 z"/>
        <path fill="#181817" d=" M 4.23200,3.89600 l 0.00000,-0.16800 l 0.16800,0.00000 l 0.00000,0.16800 l -0.16800,0.00000 z"/>
        <path fill="#181817" d=" M 0.20000,3.72800 l 0.00000,-0.16800 l 0.16800,0.00000 l 0.00000,0.16800 l -0.16800,0.00000 z"/>
        <path fill="#181817" d=" M 0.53600,3.72800 l 0.00000,-0.16800 l 0.50400,0.00000 l 0.00000,0.16800 l -0.50400,0.00000 z"/>
        <path fill="#181817" d=" M 1.20800,3.72800 l 0.00000,-0.16800 l 0.16800,0.00000 l 0.00000,0.16800 l -0.16800,0.00000 z"/>
        <path fill="#181817" d=" M 1.88000,3.72800 l 0.00000,-0.16800 l 0.50400,0.00000 l 0.00000,0.16800 l -0.50400,0.00000 z"/>
        <path fill="#181817" d=" M 2.55200,3.72800 l 0.00000,-0.16800 l 0.16800,0.00000 l 0.00000,0.16800 l -0.16800,0.00000 z"/>
        <path fill="#181817" d=" M 2.88800,3.72800 l 0.00000,-0.16800 l 0.16800,0.00000 l 0.00000,0.16800 l -0.16800,0.00000 z"/>
        <path fill="#181817" d=" M 3.22400,3.72800 l 0.00000,-0.16800 l 0.16800,0.00000 l 0.00000,0.16800 l -0.16800,0.00000 z"/>
        <path fill="#181817" d=" M 3.56000,3.72800 l 0.00000,-0.16800 l 0.50400,0.00000 l 0.00000,0.16800 l -0.50400,0.00000 z"/>
        <path fill="#181817" d=" M 4.23200,3.72800 l 0.00000,-0.16800 l 0.16800,0.00000 l 0.00000,0.16800 l -0.16800,0.00000 z"/>
        <path fill="#181817" d=" M 0.20000,3.56000 l 0.00000,-0.16800 l 0.16800,0.00000 l 0.00000,0.16800 l -0.16800,0.00000 z"/>
        <path fill="#181817" d=" M 1.20800,3.56000 l 0.00000,-0.16800 l 0.16800,0.00000 l 0.00000,0.16800 l -0.16800,0.00000 z"/>
        <path fill="#181817" d=" M 1.71200,3.56000 l 0.00000,-0.16800 l 0.16800,0.00000 l 0.00000,0.16800 l -0.16800,0.00000 z"/>
        <path fill="#181817" d=" M 2.04800,3.56000 l 0.00000,-0.16800 l 0.16800,0.00000 l 0.00000,0.16800 l -0.16800,0.00000 z"/>
        <path fill="#181817" d=" M 3.22400,3.56000 l 0.00000,-0.16800 l 0.16800,0.00000 l 0.00000,0.16800 l -0.16800,0.00000 z"/>
        <path fill="#181817" d=" M 4.23200,3.56000 l 0.00000,-0.16800 l 0.16800,0.00000 l 0.00000,0.16800 l -0.16800,0.00000 z"/>
        <path fill="#181817" d=" M 0.20000,3.39200 l 0.00000,-0.16800 l 1.17600,0.00000 l 0.00000,0.16800 l -1.17600,0.00000 z"/>
        <path fill="#181817" d=" M 1.54400,3.39200 l 0.00000,-0.16800 l 0.16800,0.00000 l 0.00000,0.16800 l -0.16800,0.00000 z"/>
        <path fill="#181817" d=" M 1.88000,3.39200 l 0.00000,-0.16800 l 0.16800,0.00000 l 0.00000,0.16800 l -0.16800,0.00000 z"/>
        <path fill="#181817" d=" M 2.21600,3.39200 l 0.00000,-0.16800 l 0.16800,0.00000 l 0.00000,0.16800 l -0.16800,0.00000 z"/>
        <path fill="#181817" d=" M 2.55200,3.39200 l 0.00000,-0.16800 l 0.16800,0.00000 l 0.00000,0.16800 l -0.16800,0.00000 z"/>
        <path fill="#181817" d=" M 2.88800,3.39200 l 0.00000,-0.16800 l 0.16800,0.00000 l 0.00000,0.16800 l -0.16800,0.00000 z"/>
        <path fill="#181817" d=" M 3.22400,3.39200 l 0.00000,-0.16800 l 1.17600,0.00000 l 0.00000,0.16800 l -1.17600,0.00000 z"/>
        <path fill="#181817" d=" M 1.54400,3.22400 l 0.00000,-0.16800 l 0.33600,0.00000 l 0.00000,0.16800 l -0.33600,0.00000 z"/>
        <path fill="#181817" d=" M 2.04800,3.22400 l 0.00000,-0.16800 l 0.50400,0.00000 l 0.00000,0.16800 l -0.50400,0.00000 z"/>
        <path fill="#181817" d=" M 2.88800,3.22400 l 0.00000,-0.16800 l 0.16800,0.00000 l 0.00000,0.16800 l -0.16800,0.00000 z"/>
        <path fill="#181817" d=" M 0.20000,3.05600 l 0.00000,-0.16800 l 0.33600,0.00000 l 0.00000,0.16800 l -0.33600,0.00000 z"/>
        <path fill="#181817" d=" M 0.70400,3.05600 l 0.00000,-0.16800 l 0.33600,0.00000 l 0.00000,0.16800 l -0.33600,0.00000 z"/>
        <path fill="#181817" d=" M 1.20800,3.05600 l 0.00000,-0.16800 l 0.16800,0.00000 l 0.00000,0.16800 l -0.16800,0.00000 z"/>
        <path fill="#181817" d=" M 1.71200,3.05600 l 0.00000,-0.16800 l 0.16800,0.00000 l 0.00000,0.16800 l -0.16800,0.00000 z"/>
        <path fill="#181817" d=" M 2.55200,3.05600 l 0.00000,-0.16800 l 0.33600,0.00000 l 0.00000,0.16800 l -0.33600,0.00000 z"/>
        <path fill="#181817" d=" M 3.22400,3.05600 l 0.00000,-0.16800 l 0.16800,0.00000 l 0.00000,0.16800 l -0.16800,0.00000 z"/>
        <path fill="#181817" d=" M 4.23200,3.05600 l 0.00000,-0.16800 l 0.16800,0.00000 l 0.00000,0.16800 l -0.16800,0.00000 z"/>
        <path fill="#181817" d=" M 1.04000,2.88800 l 0.00000,-0.16800 l 0.16800,0.00000 l 0.00000,0.16800 l -0.16800,0.00000 z"/>
        <path fill="#181817" d=" M 1.37600,2.88800 l 0.00000,-0.16800 l 0.33600,0.00000 l 0.00000,0.16800 l -0.33600,0.00000 z"/>
        <path fill="#181817" d=" M 1.88000,2.88800 l 0.00000,-0.16800 l 0.33600,0.00000 l 0.00000,0.16800 l -0.33600,0.00000 z"/>
        <path fill="#181817" d=" M 2.72000,2.88800 l 0.00000,-0.16800 l 0.16800,0.00000 l 0.00000,0.16800 l -0.16800,0.00000 z"/>
        <path fill="#181817" d=" M 3.05600,2.88800 l 0.00000,-0.16800 l 0.16800,0.00000 l 0.00000,0.16800 l -0.16800,0.00000 z"/>
        <path fill="#181817" d=" M 3.39200,2.88800 l 0.00000,-0.16800 l 0.84000,0.00000 l 0.00000,0.16800 l -0.84000,0.00000 z"/>
        <path fill="#181817" d=" M 0.20000,2.72000 l 0.00000,-0.16800 l 0.16800,0.00000 l 0.00000,0.16800 l -0.16800,0.00000 z"/>
        <path fill="#181817" d=" M 0.53600,2.72000 l 0.00000,-0.16800 l 0.33600,0.00000 l 0.00000,0.16800 l -0.33600,0.00000 z"/>
        <path fill="#181817" d=" M 1.04000,2.72000 l 0.00000,-0.16800 l 0.33600,0.00000 l 0.00000,0.16800 l -0.33600,0.00000 z"/>
        <path fill="#181817" d=" M 1.71200,2.72000 l 0.00000,-0.16800 l 0.16800,0.00000 l 0.00000,0.16800 l -0.16800,0.00000 z"/>
        <path fill="#181817" d=" M 2.04800,2.72000 l 0.00000,-0.16800 l 0.16800,0.00000 l 0.00000,0.16800 l -0.16800,0.00000 z"/>
        <path fill="#181817" d=" M 2.55200,2.72000 l 0.00000,-0.16800 l 0.33600,0.00000 l 0.00000,0.16800 l -0.33600,0.00000 z"/>
        <path fill="#181817" d=" M 3.05600,2.72000 l 0.00000,-0.16800 l 0.84000,0.00000 l 0.00000,0.16800 l -0.84000,0.00000 z"/>
        <path fill="#181817" d=" M 4.23200,2.72000 l 0.00000,-0.16800 l 0.16800,0.00000 l 0.00000,0.16800 l -0.16800,0.00000 z"/>
        <path fill="#181817" d=" M 0.20000,2.55200 l 0.00000,-0.16800 l 0.16800,0.00000 l 0.00000,0.16800 l -0.16800,0.00000 z"/>
        <path fill="#181817" d=" M 0.53600,2.55200 l 0.00000,-0.16800 l 0.50400,0.00000 l 0.00000,0.16800 l -0.50400,0.00000 z"/>
        <path fill="#181817" d=" M 1.54400,2.55200 l 0.00000,-0.16800 l 0.16800,0.00000 l 0.00000,0.16800 l -0.16800,0.00000 z"/>
        <path fill="#181817" d=" M 2.21600,2.55200 l 0.00000,-0.16800 l 0.16800,0.00000 l 0.00000,0.16800 l -0.16800,0.00000 z"/>
        <path fill="#181817" d=" M 2.72000,2.55200 l 0.00000,-0.16800 l 0.16800,0.00000 l 0.00000,0.16800 l -0.16800,0.00000 z"/>
        <path fill="#181817" d=" M 3.72800,2.55200 l 0.00000,-0.16800 l 0.67200,0.00000 l 0.00000,0.16800 l -0.67200,0.00000 z"/>
        <path fill="#181817" d=" M 0.87200,2.38400 l 0.00000,-0.16800 l 0.50400,0.00000 l 0.00000,0.16800 l -0.50400,0.00000 z"/>
        <path fill="#181817" d=" M 1.71200,2.38400 l 0.00000,-0.16800 l 0.33600,0.00000 l 0.00000,0.16800 l -0.33600,0.00000 z"/>
        <path fill="#181817" d=" M 2.21600,2.38400 l 0.00000,-0.16800 l 0.16800,0.00000 l 0.00000,0.16800 l -0.16800,0.00000 z"/>
        <path fill="#181817" d=" M 2.88800,2.38400 l 0.00000,-0.16800 l 0.16800,0.00000 l 0.00000,0.16800 l -0.16800,0.00000 z"/>
        <path fill="#181817" d=" M 3.22400,2.38400 l 0.00000,-0.16800 l 0.33600,0.00000 l 0.00000,0.16800 l -0.33600,0.00000 z"/>
        <path fill="#181817" d=" M 4.23200,2.38400 l 0.00000,-0.16800 l 0.16800,0.00000 l 0.00000,0.16800 l -0.16800,0.00000 z"/>
        <path fill="#181817" d=" M 0.20000,2.21600 l 0.00000,-0.16800 l 0.16800,0.00000 l 0.00000,0.16800 l -0.16800,0.00000 z"/>
        <path fill="#181817" d=" M 0.87200,2.21600 l 0.00000,-0.16800 l 0.33600,0.00000 l 0.00000,0.16800 l -0.33600,0.00000 z"/>
        <path fill="#181817" d=" M 1.37600,2.21600 l 0.00000,-0.16800 l 0.84000,0.00000 l 0.00000,0.16800 l -0.84000,0.00000 z"/>
        <path fill="#181817" d=" M 2.38400,2.21600 l 0.00000,-0.16800 l 0.16800,0.00000 l 0.00000,0.16800 l -0.16800,0.00000 z"/>
        <path fill="#181817" d=" M 2.72000,2.21600 l 0.00000,-0.16800 l 0.16800,0.00000 l 0.00000,0.16800 l -0.16800,0.00000 z"/>
        <path fill="#181817" d=" M 3.56000,2.21600 l 0.00000,-0.16800 l 0.16800,0.00000 l 0.00000,0.16800 l -0.16800,0.00000 z"/>
        <path fill="#181817" d=" M 4.06400,2.21600 l 0.00000,-0.16800 l 0.16800,0.00000 l 0.00000,0.16800 l -0.16800,0.00000 z"/>
        <path fill="#181817" d=" M 0.20000,2.04800 l 0.00000,-0.16800 l 0.33600,0.00000 l 0.00000,0.16800 l -0.33600,0.00000 z"/>
        <path fill="#181817" d=" M 0.70400,2.04800 l 0.00000,-0.16800 l 0.16800,0.00000 l 0.00000,0.16800 l -0.16800,0.00000 z"/>
        <path fill="#181817" d=" M 1.04000,2.04800 l 0.00000,-0.16800 l 0.33600,0.00000 l 0.00000,0.16800 l -0.33600,0.00000 z"/>
        <path fill="#181817" d=" M 1.71200,2.04800 l 0.00000,-0.16800 l 0.33600,0.00000 l 0.00000,0.16800 l -0.33600,0.00000 z"/>
        <path fill="#181817" d=" M 2.38400,2.04800 l 0.00000,-0.16800 l 0.16800,0.00000 l 0.00000,0.16800 l -0.16800,0.00000 z"/>
        <path fill="#181817" d=" M 2.72000,2.04800 l 0.00000,-0.16800 l 0.16800,0.00000 l 0.00000,0.16800 l -0.16800,0.00000 z"/>
        <path fill="#181817" d=" M 3.22400,2.04800 l 0.00000,-0.16800 l 0.16800,0.00000 l 0.00000,0.16800 l -0.16800,0.00000 z"/>
        <path fill="#181817" d=" M 3.56000,2.04800 l 0.00000,-0.16800 l 0.84000,0.00000 l 0.00000,0.16800 l -0.84000,0.00000 z"/>
        <path fill="#181817" d=" M 0.20000,1.88000 l 0.00000,-0.16800 l 0.16800,0.00000 l 0.00000,0.16800 l -0.16800,0.00000 z"/>
        <path fill="#181817" d=" M 0.53600,1.88000 l 0.00000,-0.16800 l 0.50400,0.00000 l 0.00000,0.16800 l -0.50400,0.00000 z"/>
        <path fill="#181817" d=" M 1.37600,1.88000 l 0.00000,-0.16800 l 0.16800,0.00000 l 0.00000,0.16800 l -0.16800,0.00000 z"/>
        <path fill="#181817" d=" M 1.71200,1.88000 l 0.00000,-0.16800 l 0.50400,0.00000 l 0.00000,0.16800 l -0.50400,0.00000 z"/>
        <path fill="#181817" d=" M 2.55200,1.88000 l 0.00000,-0.16800 l 0.16800,0.00000 l 0.00000,0.16800 l -0.16800,0.00000 z"/>
        <path fill="#181817" d=" M 2.88800,1.88000 l 0.00000,-0.16800 l 0.67200,0.00000 l 0.00000,0.16800 l -0.67200,0.00000 z"/>
        <path fill="#181817" d=" M 3.72800,1.88000 l 0.00000,-0.16800 l 0.33600,0.00000 l 0.00000,0.16800 l -0.33600,0.00000 z"/>
        <path fill="#181817" d=" M 4.23200,1.88000 l 0.00000,-0.16800 l 0.16800,0.00000 l 0.00000,0.16800 l -0.16800,0.00000 z"/>
        <path fill="#181817" d=" M 0.20000,1.71200 l 0.00000,-0.16800 l 0.16800,0.00000 l 0.00000,0.16800 l -0.16800,0.00000 z"/>
        <path fill="#181817" d=" M 0.70400,1.71200 l 0.00000,-0.16800 l 0.33600,0.00000 l 0.00000,0.16800 l -0.33600,0.00000 z"/>
        <path fill="#181817" d=" M 1.20800,1.71200 l 0.00000,-0.16800 l 0.16800,0.00000 l 0.00000,0.16800 l -0.16800,0.00000 z"/>
        <path fill="#181817" d=" M 1.54400,1.71200 l 0.00000,-0.16800 l 0.16800,0.00000 l 0.00000,0.16800 l -0.16800,0.00000 z"/>
        <path fill="#181817" d=" M 1.88000,1.71200 l 0.00000,-0.16800 l 0.16800,0.00000 l 0.00000,0.16800 l -0.16800,0.00000 z"/>
        <path fill="#181817" d=" M 2.21600,1.71200 l 0.00000,-0.16800 l 0.33600,0.00000 l 0.00000,0.16800 l -0.33600,0.00000 z"/>
        <path fill="#181817" d=" M 2.88800,1.71200 l 0.00000,-0.16800 l 0.84000,0.00000 l 0.00000,0.16800 l -0.84000,0.00000 z"/>
        <path fill="#181817" d=" M 3.89600,1.71200 l 0.00000,-0.16800 l 0.33600,0.00000 l 0.00000,0.16800 l -0.33600,0.00000 z"/>
        <path fill="#181817" d=" M 1.54400,1.54400 l 0.00000,-0.16800 l 0.33600,0.00000 l 0.00000,0.16800 l -0.33600,0.00000 z"/>
        <path fill="#181817" d=" M 2.55200,1.54400 l 0.00000,-0.16800 l 0.50400,0.00000 l 0.00000,0.16800 l -0.50400,0.00000 z"/>
        <path fill="#181817" d=" M 3.56000,1.54400 l 0.00000,-0.16800 l 0.16800,0.00000 l 0.00000,0.16800 l -0.16800,0.00000 z"/>
        <path fill="#181817" d=" M 3.89600,1.54400 l 0.00000,-0.16800 l 0.33600,0.00000 l 0.00000,0.16800 l -0.33600,0.00000 z"/>
        <path fill="#181817" d=" M 0.20000,1.37600 l 0.00000,-0.16800 l 1.17600,0.00000 l 0.00000,0.16800 l -1.17600,0.00000 z"/>
        <path fill="#181817" d=" M 1.88000,1.37600 l 0.00000,-0.16800 l 0.33600,0.00000 l 0.00000,0.16800 l -0.33600,0.00000 z"/>
        <path fill="#181817" d=" M 2.55200,1.37600 l 0.00000,-0.16800 l 0.16800,0.00000 l 0.00000,0.16800 l -0.16800,0.00000 z"/>
        <path fill="#181817" d=" M 2.88800,1.37600 l 0.00000,-0.16800 l 0.16800,0.00000 l 0.00000,0.16800 l -0.16800,0.00000 z"/>
        <path fill="#181817" d=" M 3.22400,1.37600 l 0.00000,-0.16800 l 0.16800,0.00000 l 0.00000,0.16800 l -0.16800,0.00000 z"/>
        <path fill="#181817" d=" M 3.56000,1.37600 l 0.00000,-0.16800 l 0.16800,0.00000 l 0.00000,0.16800 l -0.16800,0.00000 z"/>
        <path fill="#181817" d=" M 4.23200,1.37600 l 0.00000,-0.16800 l 0.16800,0.00000 l 0.00000,0.16800 l -0.16800,0.00000 z"/>
        <path fill="#181817" d=" M 0.20000,1.20800 l 0.00000,-0.16800 l 0.16800,0.00000 l 0.00000,0.16800 l -0.16800,0.00000 z"/>
        <path fill="#181817" d=" M 1.20800,1.20800 l 0.00000,-0.16800 l 0.16800,0.00000 l 0.00000,0.16800 l -0.16800,0.00000 z"/>
        <path fill="#181817" d=" M 1.71200,1.20800 l 0.00000,-0.16800 l 0.16800,0.00000 l 0.00000,0.16800 l -0.16800,0.00000 z"/>
        <path fill="#181817" d=" M 2.04800,1.20800 l 0.00000,-0.16800 l 0.16800,0.00000 l 0.00000,0.16800 l -0.16800,0.00000 z"/>
        <path fill="#181817" d=" M 2.38400,1.20800 l 0.00000,-0.16800 l 0.16800,0.00000 l 0.00000,0.16800 l -0.16800,0.00000 z"/>
        <path fill="#181817" d=" M 2.72000,1.20800 l 0.00000,-0.16800 l 0.33600,0.00000 l 0.00000,0.16800 l -0.33600,0.00000 z"/>
        <path fill="#181817" d=" M 3.56000,1.20800 l 0.00000,-0.16800 l 0.16800,0.00000 l 0.00000,0.16800 l -0.16800,0.00000 z"/>
        <path fill="#181817" d=" M 4.23200,1.20800 l 0.00000,-0.16800 l 0.16800,0.00000 l 0.00000,0.16800 l -0.16800,0.00000 z"/>
        <path fill="#181817" d=" M 0.20000,1.04000 l 0.00000,-0.16800 l 0.16800,0.00000 l 0.00000,0.16800 l -0.16800,0.00000 z"/>
        <path fill="#181817" d=" M 0.53600,1.04000 l 0.00000,-0.16800 l 0.50400,0.00000 l 0.00000,0.16800 l -0.50400,0.00000 z"/>
        <path fill="#181817" d=" M 1.20800,1.04000 l 0.00000,-0.16800 l 0.16800,0.00000 l 0.00000,0.16800 l -0.16800,0.00000 z"/>
        <path fill="#181817" d=" M 1.54400,1.04000 l 0.00000,-0.16800 l 0.33600,0.00000 l 0.00000,0.16800 l -0.33600,0.00000 z"/>
        <path fill="#181817" d=" M 2.04800,1.04000 l 0.00000,-0.16800 l 0.33600,0.00000 l 0.00000,0.16800 l -0.33600,0.00000 z"/>
        <path fill="#181817" d=" M 2.72000,1.04000 l 0.00000,-0.16800 l 1.00800,0.00000 l 0.00000,0.16800 l -1.00800,0.00000 z"/>
        <path fill="#181817" d=" M 4.06400,1.04000 l 0.00000,-0.16800 l 0.16800,0.00000 l 0.00000,0.16800 l -0.16800,0.00000 z"/>
        <path fill="#181817" d=" M 0.20000,0.87200 l 0.00000,-0.16800 l 0.16800,0.00000 l 0.00000,0.16800 l -0.16800,0.00000 z"/>
        <path fill="#181817" d=" M 0.53600,0.87200 l 0.00000,-0.16800 l 0.50400,0.00000 l 0.00000,0.16800 l -0.50400,0.00000 z"/>
        <path fill="#181817" d=" M 1.20800,0.87200 l 0.00000,-0.16800 l 0.16800,0.00000 l 0.00000,0.16800 l -0.16800,0.00000 z"/>
        <path fill="#181817" d=" M 1.54400,0.87200 l 0.00000,-0.16800 l 0.33600,0.00000 l 0.00000,0.16800 l -0.33600,0.00000 z"/>
        <path fill="#181817" d=" M 2.04800,0.87200 l 0.00000,-0.16800 l 0.16800,0.00000 l 0.00000,0.16800 l -0.16800,0.00000 z"/>
        <path fill="#181817" d=" M 2.38400,0.87200 l 0.00000,-0.16800 l 1.00800,0.00000 l 0.00000,0.16800 l -1.00800,0.00000 z"/>
        <path fill="#181817" d=" M 4.06400,0.87200 l 0.00000,-0.16800 l 0.33600,0.00000 l 0.00000,0.16800 l -0.33600,0.00000 z"/>
        <path fill="#181817" d=" M 0.20000,0.70400 l 0.00000,-0.16800 l 0.16800,0.00000 l 0.00000,0.16800 l -0.16800,0.00000 z"/>
        <path fill="#181817" d=" M 0.53600,0.70400 l 0.00000,-0.16800 l 0.50400,0.00000 l 0.00000,0.16800 l -0.50400,0.00000 z"/>
        <path fill="#181817" d=" M 1.20800,0.70400 l 0.00000,-0.16800 l 0.16800,0.00000 l 0.00000,0.16800 l -0.16800,0.00000 z"/>
        <path fill="#181817" d=" M 1.88000,0.70400 l 0.00000,-0.16800 l 0.67200,0.00000 l 0.00000,0.16800 l -0.67200,0.00000 z"/>
        <path fill="#181817" d=" M 2.72000,0.70400 l 0.00000,-0.16800 l 0.33600,0.00000 l 0.00000,0.16800 l -0.33600,0.00000 z"/>
        <path fill="#181817" d=" M 3.56000,0.70400 l 0.00000,-0.16800 l 0.84000,0.00000 l 0.00000,0.16800 l -0.84000,0.00000 z"/>
        <path fill="#181817" d=" M 0.20000,0.53600 l 0.00000,-0.16800 l 0.16800,0.00000 l 0.00000,0.16800 l -0.16800,0.00000 z"/>
        <path fill="#181817" d=" M 1.20800,0.53600 l 0.00000,-0.16800 l 0.16800,0.00000 l 0.00000,0.16800 l -0.16800,0.00000 z"/>
        <path fill="#181817" d=" M 1.54400,0.53600 l 0.00000,-0.16800 l 0.33600,0.00000 l 0.00000,0.16800 l -0.33600,0.00000 z"/>
        <path fill="#181817" d=" M 2.21600,0.53600 l 0.00000,-0.16800 l 0.16800,0.00000 l 0.00000,0.16800 l -0.16800,0.00000 z"/>
        <path fill="#181817" d=" M 2.55200,0.53600 l 0.00000,-0.16800 l 0.16800,0.00000 l 0.00000,0.16800 l -0.16800,0.00000 z"/>
        <path fill="#181817" d=" M 3.05600,0.53600 l 0.00000,-0.16800 l 0.16800,0.00000 l 0.00000,0.16800 l -0.16800,0.00000 z"/>
        <path fill="#181817" d=" M 3.39200,0.53600 l 0.00000,-0.16800 l 0.33600,0.00000 l 0.00000,0.16800 l -0.33600,0.00000 z"/>
        <path fill="#181817" d=" M 3.89600,0.53600 l 0.00000,-0.16800 l 0.50400,0.00000 l 0.00000,0.16800 l -0.50400,0.00000 z"/>
        <path fill="#181817" d=" M 0.20000,0.36800 l 0.00000,-0.16800 l 1.17600,0.00000 l 0.00000,0.16800 l -1.17600,0.00000 z"/>
        <path fill="#181817" d=" M 1.54400,0.36800 l 0.00000,-0.16800 l 0.84000,0.00000 l 0.00000,0.16800 l -0.84000,0.00000 z"/>
        <path fill="#181817" d=" M 2.88800,0.36800 l 0.00000,-0.16800 l 0.50400,0.00000 l 0.00000,0.16800 l -0.50400,0.00000 z"/>
        <path fill="#181817" d=" M 3.72800,0.36800 l 0.00000,-0.16800 l 0.16800,0.00000 l 0.00000,0.16800 l -0.16800,0.00000 z"/>
        <path fill="#181817" d=" M 4.23200,0.36800 l 0.00000,-0.16800 l 0.16800,0.00000 l 0.00000,0.16800 l -0.16800,0.00000 z"/>
    </g>
</svg>
